<?xml version="1.0" encoding="utf-8"?>
<!-- Generator: Adobe Illustrator 24.0.0, SVG Export Plug-In . SVG Version: 6.00 Build 0)  -->
<svg version="1.1" id="Layer_1" xmlns="http://www.w3.org/2000/svg" xmlns:xlink="http://www.w3.org/1999/xlink" x="0px" y="0px"
	 viewBox="0 0 50 50" style="enable-background:new 0 0 50 50;" xml:space="preserve">
<style type="text/css">
	.st0{fill:none;stroke:#FF96A9;stroke-width:0;stroke-linecap:round;stroke-linejoin:round;}
	.st1{fill:#FFCFDB;}
	.st2{fill:none;stroke:#FFCFDB;stroke-width:0;stroke-linecap:round;stroke-linejoin:round;}
	.st3{fill:#FF96AC;}
	.st4{fill:#FF5675;}
	.st5{fill:#E89D98;}
	.st6{opacity:0.3216;fill:#8C2B84;}
	.st7{fill:#6B5A5F;}
	.st8{fill:#FFFFFF;}
</style>
<g>
	<line class="st0" x1="23.31" y1="4.7" x2="23.31" y2="4.69"/>
	<g>
		<path class="st1" d="M44.27,25.93c-0.2-1.21-0.75-2.37-1.4-3.4c-0.67-1.07-1.51-2.06-2.56-2.77c-2.38-1.61-5.56-1.02-8.1-0.11
			c-0.56,0.2-1.1,0.46-1.68,0.63c-0.26,0.08-0.45,0.12-0.66,0.12c0.01,0-0.12-0.01-0.12-0.01c-0.06-0.01-0.12-0.03-0.17-0.04
			c-0.06-0.02-0.1-0.04-0.11-0.06c-0.02-0.02-0.06-0.09-0.06-0.07c-0.01-0.01-0.02-0.03-0.02-0.04c-0.01-0.02-0.03-0.08-0.04-0.09
			c-0.02-0.05-0.03-0.11-0.04-0.16c-0.06-0.24-0.09-0.49-0.13-0.73c-0.13-0.69-0.27-1.37-0.37-2.07c-0.11-0.71-0.18-1.42-0.2-2.14
			c-0.02-0.66-0.05-1.39,0.11-2.04c0.11-0.45,0.35-0.71,0.71-1.06c0.41-0.39,0.82-0.75,1.14-1.22c0.31-0.46,0.56-1.11,0.14-1.58
			c-0.31-0.34-0.8-0.39-1.24-0.39c-0.53,0-1.06,0.02-1.59-0.01c-0.26-0.02-0.53-0.04-0.79-0.06c-0.61-0.14-1.22-0.26-1.84-0.35
			c-0.76-0.1-1.52-0.17-2.28-0.17c-0.56,0-1.13-0.02-1.69,0.02c-0.54,0.04-1.08,0.24-1.25,0.81c-0.15,0.52,0.08,1.16,0.37,1.59
			c0.3,0.44,0.7,0.78,1.1,1.13c0.19,0.16,0.38,0.33,0.55,0.51c0.03,0.03,0.06,0.06,0.08,0.09c0,0,0.06,0.08,0.07,0.09
			c0.07,0.1,0.14,0.21,0.19,0.32c0,0.02,0.04,0.12,0.04,0.12c0.02,0.07,0.04,0.14,0.05,0.21c0.03,0.12,0.05,0.25,0.07,0.37
			c0.04,0.27,0.05,0.63,0.05,0.94c-0.01,0.65-0.08,1.29-0.19,1.93c-0.2,1.14-0.5,2.26-0.74,3.39c-0.03,0.12-0.05,0.24-0.09,0.35
			c-0.02,0.06-0.04,0.11-0.05,0.17c0,0.01-0.01,0.02-0.01,0.03c0,0.01-0.01,0.02-0.02,0.03c-0.03,0.05-0.05,0.09-0.08,0.14
			c0,0,0,0.01-0.01,0.01c-0.02,0.03-0.05,0.05-0.08,0.08c0-0.01-0.09,0.04-0.08,0.04c-0.03,0.01-0.06,0.02-0.1,0.03
			c-0.02,0-0.09,0-0.1,0c-0.01,0-0.02,0-0.03,0c-0.01,0-0.02,0-0.03-0.01c-0.05-0.01-0.1-0.02-0.15-0.03
			c-0.28-0.07-0.54-0.18-0.8-0.29c-0.44-0.18-0.96-0.42-1.48-0.52c-0.58-0.11-1.17-0.17-1.76-0.16c-1.87,0.02-3.65,0.63-5.17,1.65
			c-0.43,0.24-0.84,0.52-1.2,0.85c-0.28,0.25-0.52,0.53-0.74,0.82c-1.24,1.35-2.14,3.02-2.53,4.82c-0.27,1.21-0.29,2.45-0.18,3.68
			c0.11,1.29,0.4,2.55,0.95,3.73c0.6,1.26,1.53,2.32,2.52,3.29c1.04,1.03,2.18,1.96,3.34,2.85c1.12,0.87,2.26,1.7,3.48,2.42
			c1.2,0.71,2.44,1.34,3.65,2.03c1.15,0.66,2.3,1.34,3.56,1.77c1.18,0.4,2.39,0.41,3.61,0.16c2.28-0.47,4.27-1.87,5.94-3.44
			c1.68-1.58,3.1-3.4,4.48-5.23c1.44-1.91,2.95-3.77,4.12-5.87C43.83,30.87,44.69,28.42,44.27,25.93z M23.79,19.12
			c0.05-0.08,0.08-0.18,0.08-0.3c-0.01-0.34,0-0.67,0.03-1.01c0.01,0.04,0.02,0.08,0.03,0.12c0.05,0.18,0.17,0.3,0.32,0.36
			c0,0.03-0.01,0.06-0.01,0.09c-0.06,0.34-0.14,0.69-0.26,1.02c0,0.01,0,0.01,0,0.01c0,0.01,0,0.01-0.01,0.01
			c-0.02,0.03-0.03,0.06-0.05,0.09c-0.01,0.02-0.06,0.1-0.08,0.14c0,0-0.01,0.01-0.01,0.01c0,0,0,0,0-0.01
			c-0.01-0.02-0.02-0.05-0.02-0.07c-0.01-0.04-0.02-0.08-0.03-0.13C23.77,19.35,23.78,19.24,23.79,19.12z M22.9,9.59
			c0.04,0,0.08-0.01,0.12-0.01c0.08-0.01,0.15,0,0.23-0.01c-0.07,0.26,0.04,0.51,0.26,0.66c-0.03,0.04-0.05,0.09-0.07,0.14
			c0,0,0,0.01,0,0.01c-0.01-0.01-0.03-0.02-0.04-0.03c-0.01-0.01-0.05-0.04-0.07-0.05c-0.04-0.03-0.08-0.06-0.12-0.1
			c-0.11-0.12-0.23-0.24-0.35-0.35c-0.06-0.08-0.08-0.14-0.12-0.23C22.79,9.61,22.84,9.6,22.9,9.59z M17.68,20.74
			c0.44,0.04,0.94,0.14,1.39,0.32c0.19,0.08,0.46,0.2,0.71,0.3c0.25,0.1,0.5,0.2,0.77,0.27c0.18,0.04,0.36,0.06,0.53,0.06
			c-0.14,0.1-0.29,0.21-0.44,0.3c-0.11,0.07-0.22,0.14-0.34,0.2c-0.06,0.03-0.11,0.06-0.17,0.09c-0.02,0.01-0.11,0.05-0.12,0.05
			c-0.09,0.03-0.19,0.06-0.29,0.09c-0.01,0-0.01,0-0.02,0c-0.01,0-0.01,0-0.02,0c-0.02,0-0.05,0-0.07,0c-0.01,0-0.01,0-0.02,0
			c0,0,0,0-0.01,0c-0.2-0.04-0.39-0.18-0.56-0.32c-0.48-0.42-0.89-0.86-1.46-1.15c-0.2-0.1-0.4-0.18-0.61-0.25
			C17.19,20.71,17.43,20.72,17.68,20.74z M42.74,29.8c-0.72,2.27-2.14,4.3-3.56,6.21c-1.29,1.73-2.52,3.39-3.9,5.01
			c-1.44,1.69-3.02,3.29-4.95,4.38c-0.92,0.52-1.85,0.89-2.92,1.06c-0.18,0.03-0.43,0.05-0.67,0.07c-0.29,0.01-0.58,0.02-0.87-0.02
			c-0.09-0.01-0.17-0.03-0.26-0.04c0.05-0.18,0.02-0.4-0.14-0.58c-0.78-0.92-1.88-1.51-2.93-2.06c-1.12-0.59-2.2-1.24-3.26-1.95
			c-2.09-1.41-4.05-3.04-5.65-5c-0.14-0.22-0.28-0.45-0.41-0.68c-0.65-1.11-1.27-2.23-1.83-3.39c-0.14-0.29-0.27-0.57-0.4-0.87
			c0,0.01-0.05-0.12-0.07-0.16c-0.01-0.01-0.01-0.02-0.01-0.03c-0.03-0.09-0.07-0.18-0.1-0.27c-0.13-0.37-0.25-0.75-0.38-1.12
			c-0.11-0.3-0.23-0.62-0.37-0.92c-0.11-0.9-0.06-1.84,0.14-2.68c0.06-0.25,0.13-0.49,0.21-0.74c0.04-0.11,0.08-0.23,0.12-0.34
			c0.05-0.12,0.05-0.13,0.12-0.27c0.1-0.22,0.22-0.43,0.34-0.63c0.06-0.1,0.12-0.19,0.18-0.28c0.03-0.05,0.07-0.1,0.11-0.15
			c0.02-0.02,0.02-0.03,0.03-0.04c0,0,0.01-0.01,0.03-0.03c0.16-0.2,0.34-0.39,0.52-0.56c0.1-0.09,0.19-0.17,0.3-0.26
			c0.02-0.01,0.04-0.03,0.05-0.04c0.05-0.04,0.11-0.08,0.17-0.12c0.21-0.14,0.43-0.26,0.65-0.36c0.02-0.01,0.02-0.01,0.03-0.01
			c0.01,0,0.02-0.01,0.04-0.01c0.06-0.02,0.13-0.05,0.19-0.07c0.12-0.04,0.24-0.08,0.36-0.11c0.11-0.03,0.23-0.05,0.35-0.07
			c0.02,0,0.03-0.01,0.04-0.01c0.01,0,0.02,0,0.04,0c0.08-0.01,0.16-0.02,0.24-0.02c0.27-0.02,0.54-0.01,0.81,0.02
			c0.02,0,0.03,0,0.04,0c0.01,0,0.01,0,0.02,0c0.08,0.01,0.15,0.02,0.23,0.04c0.16,0.03,0.31,0.07,0.46,0.11
			c0.28,0.08,0.56,0.18,0.81,0.29c0.3,0.13,0.65,0.09,0.83-0.22c0.08-0.14,0.1-0.32,0.05-0.49c0.01,0.01,0.03,0.02,0.04,0.03
			c0.21,0.19,0.4,0.39,0.62,0.57c-0.02,0.02-0.04,0.03-0.06,0.05c-0.11,0.12-0.18,0.27-0.18,0.43c0.01,0.15,0.05,0.33,0.18,0.43
			c0.13,0.1,0.26,0.2,0.41,0.27c0.15,0.07,0.3,0.13,0.46,0.17c0.23,0.05,0.47,0.08,0.7,0.11c0.06,0.01,0.13,0.03,0.19,0.02
			c0.05-0.01,0.11-0.01,0.16-0.02c0.08-0.02,0.15-0.05,0.2-0.11c0.04-0.03,0.07-0.06,0.1-0.1c0.16,0.06,0.35,0.06,0.51-0.04
			c0.52-0.34,1.07-0.62,1.64-0.87c0.13-0.06,0.24-0.23,0.28-0.36c0.04-0.15,0.02-0.34-0.06-0.47c-0.01-0.02-0.02-0.03-0.04-0.05
			c0.13-0.02,0.25-0.07,0.34-0.17c0.32-0.35,0.41-0.71,0.4-1.17c0-0.05-0.01-0.1-0.02-0.15c0.01-0.03,0.01-0.06,0.02-0.09
			c0.27,0.08,0.56,0.06,0.83-0.06c0.36-0.17,0.59-0.51,0.75-0.86c0,0.04,0,0.08,0,0.12c0.01,0.85,0.11,1.72,0.53,2.48
			c0.29,0.53,1.06,0.26,1.09-0.29c0.04-0.72,0.05-1.45,0.05-2.17c0.23,0.04,0.49-0.08,0.57-0.36c0.19-0.61,0.13-1.3,0.17-1.94
			c0.02-0.38,0.05-0.76,0.07-1.13c0.09,0.71,0.21,1.42,0.34,2.12c0.19,1,0.2,2.32,1.33,2.72c1.13,0.4,2.31-0.31,3.34-0.68
			c1.2-0.43,2.51-0.77,3.79-0.84c1.25-0.07,2.47,0.18,3.5,0.91c0.91,0.65,1.64,1.61,2.21,2.58c0.55,0.95,1.01,1.99,1.12,3.06
			C43.25,27.67,43.09,28.72,42.74,29.8z"/>
		<path class="st1" d="M22.64,9.66C22.64,9.66,22.64,9.66,22.64,9.66c0-0.01-0.01,0-0.01,0C22.63,9.66,22.63,9.66,22.64,9.66z"/>
	</g>
	<line class="st2" x1="24.98" y1="18.3" x2="24.98" y2="18.29"/>
	<g>
		<path class="st1" d="M43.21,25.03c-0.27-1-0.79-1.98-1.6-2.64c0-0.15-0.05-0.31-0.16-0.41c-0.21-0.21-0.43-0.35-0.68-0.45
			c-0.17-0.29-0.48-0.33-0.74-0.22c-0.03-0.02-0.06-0.05-0.09-0.07c-0.02-0.06-0.05-0.11-0.08-0.17c-0.17-0.3-0.44-0.44-0.72-0.48
			c-0.08-0.06-0.16-0.13-0.24-0.19c-0.08-0.08-0.18-0.15-0.28-0.22c-0.07-0.04-0.14-0.08-0.21-0.11c-0.24-0.14-0.49-0.25-0.77-0.33
			c-0.52-0.15-1.11-0.17-1.59,0.13c-0.05,0.03-0.09,0.06-0.14,0.1c-0.04-0.03-0.09-0.05-0.14-0.06c-0.09-0.18-0.26-0.31-0.51-0.31
			c-0.62,0-1.2,0.23-1.54,0.71c-0.13-0.11-0.3-0.15-0.52-0.09c-0.28,0.08-0.55,0.17-0.82,0.27c-0.14-0.22-0.42-0.36-0.68-0.27
			c-0.26,0.09-0.53,0.19-0.79,0.29c-0.05-0.01-0.1-0.01-0.16-0.01c-0.22,0.01-0.44,0.05-0.66,0.09c-0.4,0.08-0.83,0.21-1.17,0.43
			c-0.13,0.08-0.24,0.18-0.34,0.28c0.05-0.35,0.09-0.7,0.11-1.05c0.06-1.05-0.01-2.18-0.37-3.17c-0.09-0.25-0.3-0.44-0.58-0.44
			c-0.26,0-0.52,0.19-0.58,0.44c-0.19,0.79-0.23,1.62-0.23,2.43c-0.04,0.02-0.07,0.05-0.1,0.09c-0.2,0.24-0.42,0.47-0.67,0.64
			c-0.25,0.17-0.35,0.2-0.62,0.28c-0.02,0.01-0.03,0.01-0.03,0.01c-0.01,0-0.02,0-0.03,0c-0.05,0-0.11,0.01-0.16,0
			c-0.02,0-0.09-0.01-0.1-0.01c-0.02-0.01-0.05-0.01-0.07-0.02c-0.04-0.01-0.09-0.03-0.13-0.04c-0.01-0.01-0.03-0.01-0.04-0.02
			c0.13-0.45,0.18-0.93,0.18-1.39c0-0.82-0.22-1.74-1.06-2.06c-0.32-0.12-0.64,0.14-0.75,0.42c-0.38,1.03-0.42,2.36,0.2,3.3
			c0.01-0.02,0.02-0.04,0.03-0.04c-0.01,0.01-0.02,0.03-0.03,0.04c0,0,0,0,0,0c0,0,0,0,0,0c0,0.01-0.01,0.02-0.01,0.02
			c0-0.01,0.01-0.01,0.01-0.02c-0.01,0.01-0.02,0.02-0.03,0.03c0,0-0.02,0.01-0.03,0.02c-0.02,0.01-0.05,0.04-0.06,0.04
			c-0.01,0.01-0.04,0.02-0.07,0.04c-0.27,0.02-0.55,0.07-0.82,0.16c-0.04,0-0.08,0-0.11,0c-0.21-0.01-0.2-0.01-0.41-0.05
			c-0.19-0.04-0.37-0.08-0.56-0.13c-0.36-0.09-0.71-0.19-1.07-0.28c-0.77-0.19-1.66-0.37-2.42-0.05c-0.47,0.2-0.62,0.8-0.14,1.11
			c1.04,0.67,2.15,1.34,3.38,1.63c0.96,0.23,1.93,0.17,2.81-0.21c0.08,0.11,0.19,0.19,0.32,0.24c0.5,0.19,1.03,0.31,1.54,0.48
			c0.3,0.1,0.43,0.15,0.7,0.29c0.05,0.03,0.1,0.06,0.15,0.09c0.03,0.02,0.05,0.04,0.08,0.05c0,0,0.01,0.01,0.01,0.01
			c0.03,0.02,0.05,0.05,0.08,0.07c0.02,0.03,0.05,0.06,0.07,0.09c0.19,0.27,0.53,0.39,0.83,0.22c0.28-0.16,0.37-0.52,0.23-0.81
			c0.08,0.08,0.16,0.15,0.25,0.21c0.27,0.19,0.67,0.04,0.83-0.22c0.13-0.21,0.19-0.43,0.23-0.66c0.57-0.04,1.16-0.23,1.67-0.42
			c0.34,0.19,0.72,0.29,1.13,0.27c0.56-0.02,1.09-0.21,1.58-0.46c0.04-0.02,0.08-0.04,0.12-0.06c0.17,0.23,0.39,0.44,0.63,0.59
			c0.01,0.02,0.02,0.04,0.03,0.05c0.4,0.58,0.92,1.16,1.7,1.01c0.12-0.02,0.23-0.06,0.35-0.11c0.67,0.11,1.35,0.05,1.89-0.25
			c0.64-0.11,1.23-0.52,1.71-0.91c0.01-0.01,0.01-0.01,0.02-0.02c0.07,0.04,0.14,0.07,0.21,0.1c0.07,0.03,0.15,0.05,0.22,0.06
			c0.03,0.09,0.07,0.18,0.15,0.24c0.15,0.12,0.3,0.26,0.43,0.4c0.06,0.06,0.11,0.13,0.17,0.2c0.02,0.02,0.04,0.05,0.05,0.06
			c0.04,0.05,0.08,0.11,0.11,0.16c0.11,0.17,0.21,0.35,0.29,0.53c0.01,0.03,0.03,0.06,0.04,0.09c0.01,0.02,0.03,0.08,0.04,0.09
			c0.04,0.11,0.08,0.23,0.12,0.35c0.06,0.21,0.12,0.41,0.16,0.62c0.02,0.11,0.04,0.22,0.06,0.33c0.01,0.04,0.01,0.08,0.02,0.12
			c0,0.01,0.02,0.14,0.02,0.16c0.05,0.48,0.06,0.97,0.04,1.46c-0.02,0.54-0.07,0.95-0.15,1.41c-0.08,0.49-0.2,0.97-0.33,1.45
			c-0.29,1-0.59,1.77-1.09,2.66c-0.13,0.22-0.26,0.44-0.4,0.65c-0.07,0.1-0.14,0.2-0.21,0.3c-0.01,0.01-0.05,0.06-0.06,0.08
			c-0.03,0.04-0.06,0.08-0.1,0.12c-0.14,0.17-0.31,0.33-0.46,0.49c-0.05,0.05-0.09,0.11-0.13,0.16c-0.02,0.02-0.07,0.07-0.08,0.08
			c-0.09,0.1-0.16,0.2-0.24,0.31c-0.24,0.36,0.16,0.85,0.56,0.73c0.89-0.28,1.51-1.25,1.98-2c0.55-0.89,0.97-1.88,1.28-2.87
			C43.47,29.36,43.77,27.09,43.21,25.03z M26.51,22.08c-0.17-0.15-0.35-0.29-0.54-0.42c0.2-0.05,0.39-0.13,0.58-0.24
			C26.53,21.64,26.52,21.86,26.51,22.08z"/>
		<polygon class="st1" points="23.54,20.73 23.54,20.73 23.54,20.74 23.54,20.73 		"/>
	</g>
	<line class="st2" x1="17.3" y1="22.79" x2="17.3" y2="22.79"/>
	<line class="st2" x1="23.48" y1="22.59" x2="23.48" y2="22.59"/>
	<line class="st2" x1="31.97" y1="20.69" x2="31.97" y2="20.69"/>
	<line class="st2" x1="33.96" y1="20.69" x2="33.96" y2="20.69"/>
	<path class="st3" d="M41.65,25.54c-0.15-0.54-0.45-1.02-0.92-1.32c-0.66-0.43-1.49-0.38-2.2-0.13c-0.43,0.15-0.88,0.41-1.33,0.61
		c-0.14,0-0.26,0.06-0.36,0.15c-0.22,0.08-0.43,0.14-0.64,0.15c-0.09,0.01-0.17,0.01-0.26,0c-0.03,0-0.06,0-0.09-0.01
		c-0.02,0-0.07-0.01-0.08-0.02c-0.08-0.02-0.17-0.04-0.25-0.07c-0.03-0.01-0.05-0.02-0.08-0.03c-0.01-0.01-0.05-0.02-0.07-0.03
		c-0.3-0.16-0.54-0.33-0.74-0.5c-0.57-0.47-1.12-0.97-1.83-1.2c-0.82-0.27-1.7-0.08-2.45,0.33c-0.68,0.37-1.25,0.93-1.95,1.25
		c-0.3,0.14-0.66,0.2-1.04,0.16c-0.32-0.03-0.71-0.18-1.02-0.33c-0.82-0.39-1.59-0.85-2.51-0.93c-1.03-0.1-2.07,0.19-3.03,0.53
		c-0.5,0.18-0.99,0.37-1.49,0.53c-0.34,0.11-0.77,0.17-1.03,0.13c-0.36-0.06-0.59-0.16-0.87-0.29c-0.34-0.16-0.68-0.34-1.04-0.47
		c-0.29-0.11-0.6-0.18-0.91-0.21c-0.88-0.29-1.82-0.28-2.66,0.26c-1.69,1.08-1.95,3.27-1.72,5.1c0.26,1.98,1.06,3.81,2.18,5.46
		c1.13,1.66,2.51,3.2,4.01,4.53c1.15,1.01,2.48,1.73,3.8,2.48c0.36,0.24,0.74,0.46,1.13,0.66c0.12,0.07,0.24,0.15,0.35,0.22
		c0.9,0.58,1.78,1.17,2.78,1.57c0.91,0.37,1.9,0.51,2.88,0.38c1.78-0.25,3.22-1.45,4.47-2.65c0.74-0.71,1.44-1.45,2.09-2.24
		c0.68-0.83,1.3-1.7,1.97-2.54c0.04-0.05,0.08-0.1,0.12-0.14c0.3-0.31,0.6-0.64,0.88-0.97c0.29-0.34,0.55-0.7,0.79-1.07
		c0.09-0.11,0.18-0.23,0.27-0.34c0.51-0.65,1.01-1.33,1.39-2.07c0.52-1.03,0.92-2.13,1.22-3.24C41.71,28.08,41.98,26.73,41.65,25.54
		z M13.12,32.05c-0.38-0.82-0.67-1.7-0.83-2.6c-0.04-0.29-0.06-0.59-0.05-0.89c0.27,1.59,0.8,3.15,1.5,4.62
		C13.52,32.82,13.31,32.44,13.12,32.05z M13.52,28.39c-0.17-0.59-0.29-1.18-0.34-1.79c0.14,0.65,0.31,1.29,0.51,1.93
		c0.09,0.4,0.18,0.79,0.27,1.19C13.79,29.28,13.64,28.84,13.52,28.39z M15.41,25.94c0.12,0.3,0.23,0.61,0.34,0.92
		c-0.17-0.39-0.35-0.77-0.55-1.15c-0.12-0.23-0.43-0.31-0.66-0.21c-0.26,0.11-0.35,0.35-0.3,0.62c0.02,0.12,0.04,0.24,0.06,0.36
		c-0.08-0.34-0.17-0.68-0.27-1.02c-0.03-0.09-0.08-0.17-0.14-0.23c0.22-0.11,0.45-0.19,0.71-0.24c0.12-0.02,0.23-0.03,0.35-0.03
		c0.29,0.08,0.55,0.2,0.81,0.34c-0.02,0.01-0.03,0.01-0.05,0.02C15.49,25.4,15.31,25.68,15.41,25.94z M17.9,28.86
		c-0.42-0.95-0.71-1.96-1.23-2.87c0.16,0.1,0.34,0.11,0.49,0.05c0.2,1.09,0.53,2.15,0.91,3.19C18.02,29.11,17.96,28.98,17.9,28.86z
		 M19.12,37.53c-0.09-0.26-0.19-0.51-0.29-0.77c0.05,0.07,0.1,0.13,0.15,0.2c0.04,0.06,0.07,0.13,0.11,0.19
		c0.1,0.17,0.21,0.34,0.31,0.52C19.31,37.62,19.22,37.57,19.12,37.53z M22.13,30.12c-0.43-0.75-0.81-1.52-1.07-2.34
		c-0.06-0.18-0.11-0.36-0.15-0.54c-0.02-0.09-0.04-0.18-0.06-0.27c-0.01-0.03-0.01-0.07-0.02-0.1c0-0.02,0-0.04-0.01-0.05
		c-0.01-0.08-0.01-0.16-0.01-0.24c0.48,1.26,0.96,2.52,1.45,3.77C22.22,30.26,22.17,30.19,22.13,30.12z M22.03,26.2
		c0.2,0.04,0.4,0.09,0.59,0.14c0.1,0.03,0.2,0.06,0.3,0.09c-0.06,0.11-0.09,0.25-0.05,0.4c0.05,0.18,0.1,0.35,0.15,0.53
		c-0.05,0.02-0.09,0.04-0.13,0.07C22.62,27,22.34,26.59,22.03,26.2z M22.81,32.2c0.03,0.02,0.06,0.04,0.09,0.06
		c0.05,0.03,0.11,0.05,0.16,0.05c0.36,0.87,0.73,1.73,1.12,2.58C23.71,34.01,23.26,33.11,22.81,32.2z M29.56,32.49
		c0.05,0,0.1,0,0.15-0.02c0.04-0.01,0.08-0.03,0.12-0.05c0.08,0.26,0.16,0.51,0.25,0.77c-0.13-0.15-0.25-0.29-0.38-0.44
		C29.64,32.67,29.6,32.58,29.56,32.49z M27.91,26.01c-0.05,0.09-0.07,0.19-0.06,0.3c-0.01,0.01-0.01,0.02-0.02,0.03
		c-0.11-0.11-0.23-0.22-0.35-0.31C27.62,26.03,27.77,26.03,27.91,26.01z M26.25,43.21c0,0-0.01,0-0.01,0
		c-0.17-0.21-0.35-0.41-0.53-0.62c0.33,0.24,0.67,0.49,1,0.73C26.56,43.29,26.4,43.26,26.25,43.21z M31.58,38.91
		c-0.09-0.23-0.17-0.46-0.26-0.68c0.12,0.19,0.25,0.38,0.38,0.56C31.66,38.83,31.62,38.87,31.58,38.91z M32.27,29.31
		C32.23,29,32.17,28.7,32.1,28.4c0.11,0.33,0.22,0.67,0.34,1c0.11,0.33,0.21,0.66,0.32,0.99C32.59,30.03,32.43,29.67,32.27,29.31z
		 M33.5,27.59c-0.11-0.26-0.23-0.51-0.35-0.76c-0.01-0.19-0.01-0.38,0-0.56c0.01-0.15,0.01-0.26,0.03-0.36
		c0.49,1.58,1.01,3.15,1.52,4.72c0.03,0.11,0.07,0.21,0.11,0.32c-0.02,0.01-0.05,0.03-0.07,0.05c-0.12-0.23-0.23-0.46-0.34-0.7
		C34.22,29.36,33.87,28.45,33.5,27.59z M35.23,34.58c-0.19-0.49-0.36-0.98-0.52-1.48c0.01,0.02,0.02,0.04,0.03,0.06
		c0.22,0.38,0.44,0.76,0.68,1.14c0,0.01,0,0.02,0.01,0.03C35.36,34.41,35.3,34.5,35.23,34.58z M37.13,29.3
		c-0.49-1.08-0.9-2.24-1.61-3.2c0.01,0,0.01,0,0.02,0.01c0.26,0.05,0.51,0.05,0.76,0.02c-0.04,0.1-0.06,0.22-0.02,0.34
		c0.29,1.05,0.62,2.07,0.98,3.1C37.21,29.48,37.17,29.39,37.13,29.3z"/>
	<path class="st4" d="M32.17,29.33c-0.07-0.75-0.35-1.56-1.07-1.91c-0.68-0.33-1.46-0.17-2.1,0.17c-0.67,0.36-1.18,0.96-1.62,1.57
		c-0.01,0.02-0.02,0.04-0.04,0.06c0,0,0,0,0,0c-0.57,0.76-1.13,1.69-1.33,2.64c-0.02-0.01-0.03-0.01-0.05-0.01
		c-0.04-0.06-0.09-0.12-0.13-0.19c0.03-0.15,0.01-0.31-0.06-0.45c-0.52-0.99-1.28-1.93-2.15-2.64c-0.49-0.4-1.04-0.77-1.67-0.9
		c-0.67-0.13-1.31,0.01-1.85,0.44c-1.05,0.83-1.26,2.21-0.79,3.41c0.5,1.28,1.43,2.35,2.38,3.32c0.41,0.42,0.84,0.82,1.27,1.22
		c0.44,0.41,0.85,0.84,1.28,1.26c0.6,0.57,1.33,1.13,2.2,1.09c0.86-0.03,1.58-0.54,2.14-1.15c0.97-1.04,1.77-2.3,2.41-3.57
		C31.66,32.39,32.32,30.83,32.17,29.33z M28.6,29.81c-0.05-0.02-0.11-0.03-0.16-0.04c0.05-0.07,0.11-0.13,0.16-0.19
		C28.59,29.65,28.59,29.73,28.6,29.81z M24.18,31.63c-0.1-0.14-0.19-0.28-0.29-0.43c0.13,0.13,0.25,0.26,0.37,0.4
		C24.23,31.61,24.2,31.61,24.18,31.63z M21.09,28.91c0.01,0,0.08-0.03,0.1-0.04c0.01,0,0.08-0.02,0.12-0.03
		c0.03,0,0.09-0.01,0.11-0.01c0.05,0,0.11,0,0.16,0.01c0,0,0,0,0,0c0.01,0,0.03,0,0.04,0.01c0.06,0.01,0.13,0.03,0.19,0.05
		c0,0,0,0,0,0c-0.34,0.01-0.66,0.1-0.94,0.28c-0.03-0.03-0.06-0.05-0.09-0.06c0.03-0.03,0.06-0.06,0.09-0.08
		c0.02-0.01,0.08-0.05,0.1-0.06C21.02,28.95,21.05,28.93,21.09,28.91z"/>
	<path class="st5" d="M29.02,3.33c-0.04-0.43-0.14-0.85-0.47-1.15c-0.28-0.26-0.66-0.35-1.03-0.43c-0.58-0.14-1.16-0.24-1.75-0.28
		c-0.46-0.03-0.93-0.01-1.39-0.05c-0.37-0.03-0.75-0.06-1.12-0.02c-0.51,0.06-0.99,0.28-1.15,0.81c-0.13,0.45-0.08,0.96-0.04,1.42
		c0.04,0.52,0.07,1.05,0.13,1.57c0.09,0.71,0.21,1.41,0.28,2.12c0.03,0.33,0.26,0.61,0.61,0.61c0.05,0,0.09-0.01,0.14-0.02
		c0.04,0.07,0.08,0.13,0.13,0.19c0.28,0.31,0.75,0.41,1.15,0.48c0.46,0.08,0.94,0.12,1.41,0.13c0.5,0.02,1,0.01,1.5-0.06
		c0.53-0.07,1.01-0.2,1.33-0.66c0.24-0.35,0.29-0.79,0.29-1.2c0-0.51,0-1.02,0.01-1.53C29.06,4.62,29.08,3.97,29.02,3.33z
		 M23.25,2.68c0-0.01,0-0.03,0-0.04c0.01,0,0.03-0.01,0.04-0.01c0.01,0,0.03-0.01,0.05-0.01c0,0,0,0,0.01,0
		c-0.04,0.1-0.07,0.2-0.1,0.3C23.25,2.83,23.25,2.75,23.25,2.68z"/>
	<path class="st6" d="M40.55,31.13c-0.09-0.08-0.19-0.15-0.29-0.21c0.14-0.25,0.13-0.6-0.17-0.74c-3.05-1.4-5.51,1.76-7,4
		c-0.86,1.3-1.64,2.63-2.56,3.89c-0.66,0.9-1.33,1.81-2.05,2.67c-0.66,0.79-1.43,1.49-1.99,2.36c-0.39,0.6-0.77,1.42-0.51,2.15
		c0.22,0.6,0.76,0.96,1.37,1.09c0.63,0.13,1.28,0.09,1.9-0.06c0.78-0.18,1.47-0.62,2.13-1.05c1.85-1.2,3.5-2.68,5.05-4.23
		c1.46-1.45,2.82-3.08,3.78-4.91c0.48-0.91,0.89-1.89,1.01-2.92C41.29,32.44,41.12,31.63,40.55,31.13z"/>
	<g>
		<path class="st7" d="M31.4,8.36c-0.45-0.23-0.98-0.23-1.48-0.23c-0.15,0-0.29,0-0.44,0c-0.1-0.9-0.01-1.76,0.12-2.65
			c0.11-0.75,0.26-1.51,0.29-2.26c0.08-1.67-1.77-1.85-3.02-1.97c-1.18-0.12-2.42-0.35-3.61-0.16c-0.54,0.09-1.11,0.29-1.45,0.75
			c-0.32,0.44-0.36,1.03-0.36,1.56c-0.01,1.34,0.39,2.63,0.47,3.96c0,0.03,0.01,0.06,0.01,0.08c-0.96,0.01-2,0.19-2.39,1.06
			c-0.27,0.59-0.18,1.32,0.17,1.86c0.27,0.43,0.69,0.7,1.09,1c0.11,0.08,0.21,0.16,0.31,0.25c0.04,0.03,0.07,0.06,0.11,0.09
			c0.02,0.02,0.03,0.03,0.04,0.04c0.04,0.22,0.11,0.36,0.14,0.62c0.07,0.59,0.01,1.17-0.06,1.77c-0.15,1.28-0.46,2.63-0.29,3.92
			c0.1,0.77,1.29,0.65,1.21-0.13c-0.11-1.02,0.17-2.04,0.33-3.04c0.16-1.04,0.38-2.22,0.01-3.23c-0.16-0.46-0.4-0.85-0.78-1.18
			c-0.16-0.14-0.33-0.27-0.49-0.4c-0.15-0.13-0.35-0.3-0.42-0.39c-0.16-0.21-0.28-0.58-0.09-0.79c0.26-0.29,0.84-0.28,1.24-0.29
			c1.51-0.04,2.99,0.3,4.47,0.51c0.73,0.11,1.46,0.2,2.2,0.22c0.55,0.02,1.1-0.03,1.64,0.02c0.2,0.02,0.34,0.04,0.46,0.09
			c0.09,0.04,0.13,0.06,0.17,0.18c0.09,0.29,0,0.81-0.23,1.07c-0.21,0.24-0.55,0.36-0.88,0.53c-0.39,0.2-0.72,0.46-1.03,0.73
			c-0.46,0.4-0.57,1.04-0.61,1.62c-0.04,0.63,0,1.25,0.04,1.88c0.04,0.53,0.07,1.06,0.08,1.59c0.03,0.8,0.14,1.61,0.01,2.42
			c-0.1,0.63,0.9,0.98,1.11,0.34c0.26-0.8,0.29-1.57,0.28-2.41c-0.01-0.57,0-1.13-0.03-1.7c-0.03-0.56-0.05-1.11-0.06-1.67
			c0-0.23,0.01-0.41,0.04-0.67c0.01-0.11,0.02-0.23,0.05-0.34c0.01-0.03,0.02-0.07,0.02-0.1c0,0.01,0.06-0.19,0.07-0.22
			c0.01-0.02,0.01-0.04,0.01-0.05c0.01-0.01,0.01-0.02,0.01-0.02c0.01-0.01,0.02-0.02,0.04-0.04c0.02-0.02,0.12-0.09,0.17-0.12
			c0.18-0.12,0.33-0.19,0.54-0.29c0.44-0.21,0.88-0.46,1.16-0.87C32.42,10.41,32.46,8.89,31.4,8.36z M27.77,8.04
			c-0.73-0.08-1.46-0.19-2.18-0.29c0-0.03,0-0.06,0-0.09c0-0.24-0.01-0.49-0.02-0.73c-0.01-0.51,0.01-1.01,0.04-1.52
			c0.01-0.2-0.09-0.39-0.3-0.42c-0.18-0.03-0.41,0.1-0.42,0.3c-0.03,0.54-0.05,1.08-0.04,1.62c0.01,0.24,0.02,0.49,0.06,0.73
			c0,0.01,0,0.01,0,0.02c-0.22-0.03-0.44-0.06-0.67-0.09c0-0.03,0-0.05,0-0.08c0-0.11,0.01-0.22,0.01-0.33c0-0.2-0.01-0.4-0.02-0.6
			c-0.02-0.4-0.04-0.81-0.12-1.21c-0.03-0.14-0.14-0.25-0.29-0.23c-0.13,0.01-0.25,0.15-0.23,0.29c0.07,0.38,0.08,0.77,0.05,1.16
			c-0.01,0.19-0.03,0.38-0.05,0.57c-0.01,0.09-0.01,0.19-0.01,0.28c0,0.02,0,0.05,0,0.08c-0.22-0.02-0.43-0.04-0.65-0.05
			c-0.03,0-0.06,0-0.08,0c0.02-0.06,0.04-0.13,0.03-0.21c-0.06-1.03-0.34-2.04-0.44-3.07c-0.05-0.5-0.09-1.02,0.02-1.51
			c0.03-0.14,0.08-0.26,0.17-0.35c0.14-0.12,0.32-0.19,0.5-0.23c1.05-0.25,2.15,0.07,3.2,0.21c0.54,0.07,1.08,0.11,1.61,0.22
			c0.19,0.04,0.49,0.12,0.59,0.19c0.19,0.13,0.23,0.28,0.22,0.47c-0.04,0.79-0.03,1.58-0.14,2.37c-0.11,0.83-0.32,1.7-0.23,2.54
			C28.19,8.07,27.98,8.06,27.77,8.04z"/>
		<path class="st7" d="M25.23,10c-0.1-0.14-0.24-0.16-0.39-0.17c-0.19-0.01-0.38,0-0.57,0c-0.01,0-0.02,0-0.03,0
			c-0.03-0.01-0.08,0-0.11-0.01c-0.08-0.01-0.16-0.02-0.24-0.04c-0.01,0-0.02-0.01-0.04-0.01c-0.03-0.01-0.07-0.02-0.1-0.04
			c-0.04-0.02-0.07-0.03-0.11-0.05c-0.02-0.01-0.04-0.02-0.05-0.03c0.01,0,0.01,0.01,0.02,0.01c-0.11-0.07-0.21-0.11-0.34-0.1
			c-0.11,0.01-0.25,0.08-0.32,0.17c-0.08,0.1-0.13,0.23-0.11,0.35c0.02,0.11,0.07,0.25,0.17,0.32c0.2,0.13,0.39,0.22,0.61,0.28
			c0.15,0.04,0.31,0.07,0.47,0.07c0.2,0.01,0.38,0,0.57-0.04c0.25-0.06,0.58-0.15,0.63-0.45C25.32,10.17,25.29,10.08,25.23,10z"/>
		<path class="st7" d="M24.27,16.04c0.09-0.79,0.13-1.6,0.02-2.4c-0.04-0.31-0.32-0.54-0.63-0.51c-0.3,0.03-0.55,0.32-0.51,0.63
			c0.1,0.72,0.06,1.45-0.02,2.17c-0.04,0.37-0.1,0.75-0.16,1.12c-0.06,0.39-0.19,0.91,0.07,1.24c0.15,0.19,0.4,0.23,0.6,0.1
			c0.35-0.23,0.4-0.77,0.46-1.15C24.17,16.84,24.23,16.44,24.27,16.04z"/>
		<path class="st7" d="M45.7,26.73c-0.17-3.41-1.77-6.71-4.86-8.37c-1.35-0.72-2.93-1.04-4.45-1.07c-1.53-0.03-3.14,0.21-4.47,1
			c-0.33,0.2-0.66,0.41-0.94,0.68c-0.29,0.28-0.53,0.65-0.72,0.93c-0.55,0.78,0.64,1.65,1.2,0.87c0.29-0.41,0.97-0.92,1.41-1.15
			c0.63-0.34,1.14-0.48,1.81-0.6c0.74-0.13,1.28-0.14,2-0.1c0.33,0.02,0.65,0.06,0.98,0.1c0.14,0.02,0.29,0.05,0.43,0.07
			c0.08,0.02,0.17,0.03,0.25,0.05c0.04,0.01,0.09,0.02,0.13,0.03c0.01,0,0.03,0.01,0.06,0.02c2.81,0.74,4.73,3.05,5.31,5.85
			c0.69,3.32-0.15,6.63-1.88,9.49c-1.76,2.91-4.15,5.44-6.55,7.83c-1.28,1.27-2.62,2.48-4.1,3.5c-0.68,0.47-1.41,0.92-2.18,1.22
			c-0.78,0.31-1.62,0.35-2.45,0.25c-0.87-0.11-1.71-0.38-2.53-0.68c-0.91-0.33-1.8-0.69-2.67-1.1c-1.7-0.8-3.32-1.75-4.87-2.8
			C13.81,40.85,11,38.7,9.3,35.7c-0.77-1.35-1.29-2.81-1.46-4.35c-0.13-1.15-0.02-2.45,0.25-3.71c0.04-0.2,0.12-0.49,0.21-0.78
			c0.1-0.32,0.22-0.64,0.35-0.95c0.24-0.59,0.5-1.1,0.82-1.62c0.66-1.07,1.44-1.98,2.39-2.77c1.89-1.56,4.27-2.32,6.72-1.9
			c0.67,0.12,1.32,0.34,1.95,0.6c0.58,0.24,0.91-0.64,0.35-0.9c-2.59-1.18-5.53-1.21-8.09,0.06c-2.49,1.24-4.39,3.47-5.5,5.99
			c-1.22,2.78-1.45,5.82-0.49,8.72c1.18,3.54,3.86,6.26,6.77,8.46c3.21,2.43,6.75,4.53,10.58,5.81c1.93,0.64,3.99,0.96,5.91,0.1
			c1.73-0.78,3.29-2,4.7-3.25c1.42-1.26,2.73-2.63,4.02-4.01c1.23-1.32,2.42-2.68,3.48-4.15C44.43,34.02,45.89,30.53,45.7,26.73z"/>
		<path class="st7" d="M42.89,25.51c-0.07-0.4-0.17-0.79-0.3-1.17c-0.14-0.89-1.02-1.58-1.91-1.6c-0.83-0.02-1.59,0.41-2.34,0.73
			c-0.18,0.08-0.35,0.15-0.53,0.22c-0.22,0.09-0.31,0.12-0.51,0.16c-0.09,0.02-0.18,0.04-0.27,0.05c-0.06,0.01-0.11,0.01-0.17,0.02
			c-0.01,0-0.02,0-0.03,0c-0.09,0-0.17-0.01-0.26-0.02c-0.01,0-0.06-0.01-0.09-0.01c-0.02,0-0.04-0.01-0.07-0.02
			c-0.05-0.02-0.1-0.03-0.14-0.05c-0.54-0.22-0.98-0.67-1.44-1.01c-0.56-0.41-1.18-0.72-1.87-0.85c-1.27-0.24-2.58,0.27-3.54,1.08
			c-0.73,0.61-1.58,1.62-2.63,1.17c-0.54-0.23-1-0.62-1.54-0.86c-0.59-0.27-1.27-0.39-1.92-0.39c-0.68,0-1.34,0.12-1.98,0.37
			c-0.54,0.21-1.04,0.58-1.62,0.66c-0.52,0.07-1.05-0.29-1.51-0.55c-0.65-0.37-1.33-0.65-2.07-0.78c-1.36-0.25-2.73,0.11-3.89,0.83
			c-0.12-0.01-0.24,0.02-0.34,0.13c-1.1,1.23-1.87,2.68-2.03,4.35c-0.15,1.57,0.23,3.14,0.86,4.57c1.37,3.14,3.84,5.77,6.44,7.95
			c1.17,0.99,2.42,1.89,3.74,2.67c1.06,0.63,2.15,1.21,3.3,1.66c1,0.39,2.1,0.73,3.18,0.76c1.98,0.05,3.54-1.27,4.97-2.48
			c1.8-1.51,3.42-3.28,4.91-5.09c1.49-1.81,2.9-3.76,4.01-5.83C42.4,30.12,43.28,27.89,42.89,25.51z M41.11,30.6
			c-0.46,1.03-1.1,1.98-1.73,2.92c-0.62,0.92-1.26,1.84-1.93,2.72c-1.35,1.79-2.82,3.47-4.49,4.97c-0.82,0.74-1.66,1.46-2.54,2.13
			c-0.63,0.48-1.31,0.96-2.1,1.13c-0.82,0.18-1.66,0.02-2.46-0.2c-1.13-0.31-2.2-0.79-3.23-1.33c-1.39-0.73-2.71-1.6-3.96-2.57
			c-2.51-1.94-4.88-4.29-6.44-7.08c-0.72-1.29-1.27-2.69-1.39-4.18c-0.11-1.42,0.23-2.86,0.96-4.08c0.15-0.25,0.32-0.48,0.5-0.7
			c0.09,0.01,0.18-0.01,0.28-0.07c1.03-0.65,2.24-0.82,3.41-0.52c0.62,0.16,1.19,0.43,1.72,0.77c0.49,0.31,1,0.62,1.58,0.7
			c1.19,0.15,2.1-0.79,3.22-0.97c0.58-0.1,1.2-0.07,1.76,0.11c0.55,0.18,1,0.51,1.49,0.81c0.49,0.29,1.01,0.53,1.59,0.52
			c0.65-0.01,1.21-0.31,1.69-0.74c0.41-0.36,0.77-0.77,1.19-1.12c0.44-0.37,0.96-0.61,1.53-0.71c0.6-0.11,1.22-0.01,1.75,0.29
			c0.52,0.29,0.92,0.75,1.38,1.11c0.86,0.67,1.81,0.91,2.86,0.58c0.84-0.27,1.55-0.82,2.39-1.1c0.27-0.09,0.6-0.13,0.82-0.03
			c0.22,0.09,0.42,0.3,0.63,0.51c0.31,0.98,0.48,1.96,0.39,3C41.87,28.56,41.55,29.6,41.11,30.6z"/>
		<path class="st7" d="M32.75,28.78c-0.05-0.81-0.39-1.61-1.05-2.12c-0.64-0.5-1.52-0.64-2.31-0.51c-1.89,0.31-3.05,2.12-3.68,3.78
			c-0.03,0.08-0.06,0.16-0.08,0.24c-0.44-0.88-1.06-1.67-1.78-2.33c-0.99-0.9-2.52-1.62-3.81-0.93c-1.46,0.78-2.18,2.79-1.78,4.36
			c0.41,1.6,1.58,2.83,2.74,3.94c0.56,0.53,1.01,0.96,1.56,1.5c0.59,0.59,1.21,1.17,1.91,1.63c0.68,0.45,1.35,0.69,2.15,0.44
			c0.82-0.26,1.44-0.92,1.98-1.55c0.97-1.11,1.88-2.3,2.62-3.58C32.07,32.19,32.86,30.52,32.75,28.78z M31.12,30.35
			c-0.21,0.7-0.51,1.37-0.86,2c-0.62,1.13-1.37,2.18-2.17,3.19c-0.4,0.52-0.79,1.06-1.28,1.5c-0.22,0.19-0.42,0.38-0.67,0.47
			c-0.02,0.01-0.11,0.03-0.15,0.02c-0.02,0-0.09-0.02-0.12-0.02c-0.07-0.02-0.14-0.05-0.2-0.08c-0.06-0.03-0.15-0.09-0.27-0.17
			c-0.13-0.09-0.26-0.19-0.38-0.29c-0.27-0.21-0.52-0.45-0.76-0.68c-0.44-0.43-0.87-0.86-1.31-1.28c-1-0.95-2.1-1.87-2.84-3.08
			c-0.28-0.46-0.5-0.98-0.53-1.56c0,0,0-0.17,0-0.16c0-0.08,0.01-0.17,0.02-0.25c0.02-0.14,0.04-0.23,0.07-0.32
			c0.1-0.34,0.26-0.66,0.46-0.96c0.11-0.16,0.19-0.25,0.31-0.36c0.06-0.05,0.11-0.09,0.17-0.14c0,0,0.09-0.05,0.11-0.07
			c0.05-0.03,0.1-0.05,0.15-0.07c0.04-0.01,0.06-0.02,0.06-0.02c0.03-0.01,0.05-0.01,0.08-0.02c0.06-0.01,0.13-0.02,0.19-0.03
			c0.02,0,0.03,0,0.04-0.01c0.01,0,0.02,0,0.04,0c0.33,0.01,0.44,0.04,0.75,0.17c0.28,0.11,0.5,0.26,0.76,0.45
			c1,0.74,1.95,1.79,2.34,2.98c0.06,0.2,0.23,0.28,0.41,0.28c0.35,0.25,0.95,0.22,1.1-0.27c0.4-1.32,1-3.08,2.24-3.78
			c0.48-0.27,1.07-0.36,1.49-0.23c0.24,0.08,0.42,0.18,0.55,0.32c0.2,0.23,0.27,0.43,0.32,0.69C31.38,29.14,31.29,29.8,31.12,30.35z
			"/>
		<path class="st7" d="M33.8,34.98c-0.2,0.08-0.35,0.26-0.49,0.41c-0.17,0.18-0.33,0.37-0.48,0.56c-0.31,0.4-0.62,0.8-0.95,1.19
			c-0.63,0.75-1.3,1.47-2.09,2.06c-0.37,0.28,0.08,0.84,0.46,0.56c0.82-0.61,1.53-1.34,2.2-2.11c0.33-0.38,0.65-0.78,0.95-1.19
			c0.15-0.21,0.3-0.43,0.42-0.66c0.1-0.2,0.23-0.42,0.24-0.64C34.05,35.02,33.93,34.93,33.8,34.98z"/>
		<path class="st7" d="M37.44,33.39c-0.57,0.75-1.16,1.47-1.8,2.16c-0.71,0.75-1.37,1.53-2.07,2.3c-0.71,0.77-1.46,1.51-2.21,2.24
			c-0.73,0.7-1.54,1.34-2.43,1.82c-0.5,0.27-0.14,1.09,0.37,0.81c0.97-0.52,1.81-1.21,2.64-1.93c0.82-0.71,1.59-1.48,2.33-2.28
			c0.72-0.79,1.41-1.61,2.1-2.43c0.61-0.73,1.35-1.57,1.42-2.56C37.79,33.33,37.55,33.24,37.44,33.39z"/>
	</g>
	<g>
		<path class="st8" d="M16.67,21.45c-0.06-0.28-0.31-0.46-0.59-0.48c-1.56-0.15-3.06,0.36-4.23,1.39c-1.11,0.98-1.85,2.34-2.34,3.72
			c-0.63,1.79-0.76,3.73-0.27,5.57c0.21,0.79,0.53,1.63,1.18,2.17c0.64,0.54,1.52,0.67,2.16,0.02c0.66-0.67,0.83-1.71,0.88-2.61
			c0.05-0.82-0.02-1.65,0.1-2.46c0.13-0.83,0.38-1.65,0.82-2.37c0.4-0.65,0.97-1.06,1.57-1.52c0.61-0.47,1.32-1.05,1.5-1.85
			C17.6,22.34,17.26,21.77,16.67,21.45z"/>
		<path class="st8" d="M20.68,22.63c-0.02-0.08-0.06-0.17-0.11-0.24c-0.04-0.06-0.08-0.12-0.13-0.17c-0.05-0.05-0.11-0.1-0.17-0.14
			c-0.04-0.03-0.07-0.05-0.11-0.06c-0.03-0.03-0.06-0.05-0.09-0.06c-0.09-0.04-0.18-0.09-0.28-0.11c-0.07-0.02-0.15-0.02-0.22-0.03
			c-0.02,0-0.04,0-0.06,0c-0.09,0-0.18,0.01-0.26,0.04c-0.15,0.05-0.22,0.09-0.34,0.2c-0.13,0.11-0.2,0.26-0.26,0.41
			c-0.03,0.08-0.03,0.17-0.04,0.25c-0.01,0.06,0,0.12,0.01,0.18c0.01,0.06,0.01,0.12,0.04,0.18c0.03,0.08,0.06,0.17,0.11,0.24
			c0.05,0.07,0.1,0.15,0.17,0.21c0.05,0.05,0.11,0.09,0.16,0.13c0.02,0.01,0.04,0.02,0.06,0.04c0.17,0.09,0.37,0.15,0.57,0.15
			c0.07,0,0.15-0.01,0.22-0.03c0.02,0,0.04-0.01,0.07-0.02c0.08-0.03,0.17-0.06,0.25-0.11c0.14-0.1,0.28-0.22,0.36-0.38
			c0.07-0.15,0.09-0.23,0.11-0.4C20.72,22.81,20.7,22.71,20.68,22.63z"/>
	</g>
</g>
</svg>
